<?xml version="1.0" encoding="UTF-8" standalone="no"?>
<!-- Created with Inkscape (http://www.inkscape.org/) -->

<svg
   width="250"
   height="249.98199"
   viewBox="0 0 66.14583 66.141065"
   version="1.1"
   id="svg5"
   inkscape:version="1.1 (c68e22c387, 2021-05-23)"
   sodipodi:docname="SM Logo 2022.svg"
   xmlns:inkscape="http://www.inkscape.org/namespaces/inkscape"
   xmlns:sodipodi="http://sodipodi.sourceforge.net/DTD/sodipodi-0.dtd"
   xmlns="http://www.w3.org/2000/svg"
   xmlns:svg="http://www.w3.org/2000/svg">
  <sodipodi:namedview
     id="namedview7"
     pagecolor="#ffffff"
     bordercolor="#666666"
     borderopacity="1.0"
     inkscape:pageshadow="2"
     inkscape:pageopacity="0.0"
     inkscape:pagecheckerboard="0"
     inkscape:document-units="mm"
     showgrid="false"
     fit-margin-top="0"
     fit-margin-left="0"
     fit-margin-right="0"
     fit-margin-bottom="0"
     inkscape:zoom="1.0809568"
     inkscape:cx="-159.11829"
     inkscape:cy="228.50127"
     inkscape:window-width="1920"
     inkscape:window-height="986"
     inkscape:window-x="-11"
     inkscape:window-y="-11"
     inkscape:window-maximized="1"
     inkscape:current-layer="layer1"
     width="250px"
     units="px" />
  <defs
     id="defs2" />
  <g
     inkscape:label="Layer 1"
     inkscape:groupmode="layer"
     id="layer1"
     transform="translate(-56.044239,-116.18301)">
    <g
       id="g14276"
       transform="matrix(0.66011954,0,0,0.66011954,19.048341,28.016474)">
      <path
         style="fill:#0f2feb;fill-opacity:1;stroke:none;stroke-width:0.264583;stroke-opacity:1"
         d="M 99.634778,233.31422 C 69.287935,229.22114 49.593805,199.21164 57.988555,169.8546 c 7.82088,-27.35017 36.978343,-42.71271 63.995265,-33.71794 28.86013,9.60842 42.57709,42.65531 28.98356,69.82714 -9.59,19.16925 -30.27533,30.19056 -51.332602,27.35042 z"
         id="path1880" />
      <path
         style="fill:#ffffff;fill-opacity:1;stroke-width:0.264583"
         d="m 121.57804,187.84701 c 4.64178,-2.40035 6.87794,-12.81135 6.89248,-32.0896 l 0.004,-5.09323 h -2.24896 -2.24896 l -0.002,1.12448 c -0.0328,14.72674 -1.38122,29.43418 -3.69596,31.80808 -2.21309,2.26966 -4.49132,-8.74133 -4.68451,-25.32578 l -0.16812,-7.60678 h -2.37887 -2.37887 l 0.18661,6.81303 c 0.48466,17.69464 1.64741,24.46944 4.90753,28.59379 1.6031,2.02808 3.94553,2.74336 5.81617,1.77601 z"
         id="path13423" />
      <path
         style="fill:#ffffff;fill-opacity:1;stroke-width:0.264583"
         d="m 136.94103,183.34023 v -32.67605 h -2.38125 -2.38125 v 32.67605 32.67604 h 2.38125 2.38125 z"
         id="path13421" />
      <path
         style="fill:#ffffff;fill-opacity:1;stroke-width:0.264583"
         d="m 115.38739,205.72153 v -10.29474 c 0,0 0.80932,0.38104 1.22879,0.53455 1.77349,0.64905 4.60266,0.7449 6.16617,0.0471 0.55533,-0.24785 0.87734,-0.39753 1.22144,-0.57061 -0.033,1.69832 -0.0273,4.72212 -0.0273,10.39199 v 10.18646 h 2.24896 2.24895 v -15.53007 -15.53008 l -0.7334,1.53636 c -1.89055,3.9604 -5.21019,5.88261 -8.36131,5.77924 -2.99518,-0.0983 -5.88939,-1.89884 -7.69825,-5.68986 l -0.91549,-1.91868 -0.009,15.67657 -0.009,15.67656 h 2.38125 2.38125 z"
         id="path13419" />
      <path
         id="path13415"
         style="fill:#ffffff;fill-opacity:1;stroke-width:0.999999"
         d="m 322.9043,501.0918 c -5.17601,0.039 -10.20766,0.73971 -14.83594,2.10547 -28.46358,8.39928 -49.00049,38.88934 -39.53516,75.89843 3.19023,12.47365 9.26715,23.5945 19.875,35.95118 2.82218,3.28743 6.49777,7.05328 10.03711,10.51953 5.43281,5.32055 8.39695,7.95762 10.92969,10.34961 -1.26758,1.97223 -4.66548,6.76802 -5.74219,8.77343 -19.20964,35.77799 -8.31742,75.66263 22.96289,77.80664 26.65038,1.82669 41.02861,-25.04148 30.07618,-56.20312 -4.53848,-12.91272 -11.71769,-21.77191 -36.3418,-43.68164 -19.07033,-16.96815 -28.95001,-28.87471 -33.43555,-42.01367 -2.75013,-8.05569 -3.83445,-17.58549 -2.70312,-26.05469 5.75036,-43.04735 59.40313,-49.95653 81.82421,-10.22852 3.44859,6.11055 8.90576,16.2724 9.96876,29.45313 2.94368,-0.65326 8.06083,-2.08846 10.80273,-2.90235 -0.11906,2.76106 -0.21605,3.75172 -0.24023,42.03516 l -0.0254,42.35742 -2.85156,-6.68359 c -6.17995,-14.48455 -13.60425,-22.26993 -48.81054,-56.12305 -14.30926,-13.75929 -18.29455,-19.7166 -19.11524,-28.47656 -0.6342,-6.76951 0.86124,-11.58748 5.19727,-13.42773 7.15483,-3.03659 14.6364,1.10193 20.54882,9.2871 3.8688,5.35605 5.8682,13.87111 7.32227,20.33985 3.19243,-0.73595 -0.25521,0.11141 8.30664,-2.03906 7.42493,-1.86509 6.2e-4,5.2e-4 7.03125,-1.68946 -1.12095,-10.21485 -10.39416,-28.29729 -16.51758,-33.5 -6.43389,-5.46655 -13.63875,-9.42194 -21.31054,-9.97265 -18.57241,-1.33319 -30.63617,13.34504 -27.75,33.76367 2.00277,14.16899 9.90674,25.33192 32.83203,46.36719 10.7489,9.86275 19.60638,18.0321 25.90234,25.69921 13.22484,16.10495 17.10015,29.42818 17.16602,47.61719 0.10424,28.78753 -16.92304,48.85635 -41.61524,50.15235 -31.20465,1.63782 -52.96249,-19.82442 -53.09961,-54.41602 -0.0556,-14.02571 2.26353,-24.00015 9.42774,-38.125 3.26007,-6.42754 5.22543,-9.76257 6.39062,-11.9082 -1.67626,-1.14418 -2.80928,-1.91851 -6.06055,-3.90235 -3.11931,-1.90333 -5.65429,-3.46289 -5.65429,-3.46289 0,0 -3.56256,4.1648 -7.85156,11.23633 -24.66868,40.67248 -13.09872,94.58112 23.5664,111.57422 14.52828,6.73337 31.68733,7.66001 44.8711,4.94726 16.2711,-3.34851 30.63324,-14.64918 38.36328,-29.25781 l 3.70312,-7 0.0312,17.25 0.0293,17.25 h 9 9 v -123.5 -123.5 h -9 -9 l -0.0508,24.25 -0.0527,24.25 -2.24804,-6.04883 c -5.0806,-13.66348 -13.44641,-24.76865 -23.10352,-32.41796 -10.81468,-8.56625 -24.98726,-12.79899 -38.21484,-12.69922 z m -2.52735,145.5625 c 3.11033,2.38212 10.93712,9.98871 14.84375,15.81054 14.38357,21.43507 7.25071,48.5131 -11.01367,42.85352 -9.00718,-2.79103 -14.27557,-13.7691 -14.20508,-26.90625 0.0431,-8.01283 2.22594,-16.8805 6.31055,-25.0332 1.65335,-3.29998 3.84195,-6.48276 4.06445,-6.72461 z"
         transform="matrix(0.26458333,0,0,0.26458333,0,17.378509)" />
    </g>
  </g>
</svg>
